HIERARCHY
ROOT hip
{
  OFFSET 0 0 0
  CHANNELS 6 Xposition Yposition Zposition Zrotation Yrotation Xrotation
  JOINT abdomen
  {
    OFFSET 0 20.6881 -0.73152
    CHANNELS 3 Zrotation Xrotation Yrotation
    JOINT chest
    {
      OFFSET 0 11.7043 -0.48768
      CHANNELS 3 Zrotation Xrotation Yrotation
      JOINT neck
      {
        OFFSET 0 22.1894 -2.19456
        CHANNELS 3 Zrotation Xrotation Yrotation
        JOINT head
        {
          OFFSET -0.24384 7.07133 1.2192
          CHANNELS 3 Zrotation Xrotation Yrotation
          JOINT leftEye
          {
            OFFSET 4.14528 8.04674 8.04672
            CHANNELS 3 Zrotation Xrotation Yrotation
            End Site
            {
              OFFSET 1 0 0
            }
          }
          JOINT rightEye
          {
            OFFSET -3.6576 8.04674 8.04672
            CHANNELS 3 Zrotation Xrotation Yrotation
            End Site
            {
              OFFSET 1 0 0
            }
          }
        }
      }
      JOINT rCollar
      {
        OFFSET -2.68224 19.2634 -4.8768
        CHANNELS 3 Zrotation Xrotation Yrotation
        JOINT rShldr
        {
          OFFSET -8.77824 -1.95073 1.46304
          CHANNELS 3 Zrotation Xrotation Yrotation
          JOINT rForeArm
          {
            OFFSET -28.1742 -1.7115 0.48768
            CHANNELS 3 Zrotation Xrotation Yrotation
            JOINT rHand
            {
              OFFSET -22.5879 0.773209 7.07136
              CHANNELS 3 Zrotation Xrotation Yrotation
              JOINT rThumb1
              {
                OFFSET -1.2192 -0.487915 3.41376
                CHANNELS 3 Zrotation Xrotation Yrotation
                JOINT rThumb2
                {
                  OFFSET -3.37035 -0.52449 3.41376
                  CHANNELS 3 Zrotation Xrotation Yrotation
                  End Site
                  {
                    OFFSET -1.78271 -1.18214 1.43049
                  }
                }
              }
              JOINT rIndex1
              {
                OFFSET -7.75947 0.938293 5.60832
                CHANNELS 3 Zrotation Xrotation Yrotation
                JOINT rIndex2
                {
                  OFFSET -2.54057 -0.884171 1.56538
                  CHANNELS 3 Zrotation Xrotation Yrotation
                  End Site
                  {
                    OFFSET -1.62519 -0.234802 1.16502
                  }
                }
              }
              JOINT rMid1
              {
                OFFSET -8.24714 1.18213 3.41376
                CHANNELS 3 Zrotation Xrotation Yrotation
                JOINT rMid2
                {
                  OFFSET -3.10165 -0.590103 1.0647
                  CHANNELS 3 Zrotation Xrotation Yrotation
                  End Site
                  {
                    OFFSET -2.48547 -0.328903 0.83742
                  }
                }
              }
              JOINT rRing1
              {
                OFFSET -8.82822 0.546677 1.51678
                CHANNELS 3 Zrotation Xrotation Yrotation
                JOINT rRing2
                {
                  OFFSET -2.60934 -0.819778 -0.0198488
                  CHANNELS 3 Zrotation Xrotation Yrotation
                  End Site
                  {
                    OFFSET -2.33842 -0.294052 0.168128
                  }
                }
              }
              JOINT rPinky1
              {
                OFFSET -8.27202 -0.0477905 -0.4584
                CHANNELS 3 Zrotation Xrotation Yrotation
                JOINT rPinky2
                {
                  OFFSET -1.82734 -0.647385 -0.700984
                  CHANNELS 3 Zrotation Xrotation Yrotation
                  End Site
                  {
                    OFFSET -1.69225 -0.51767 -0.607171
                  }
                }
              }
            }
          }
        }
      }
      JOINT lCollar
      {
        OFFSET 2.68224 19.2634 -4.8768
        CHANNELS 3 Zrotation Xrotation Yrotation
        JOINT lShldr
        {
          OFFSET 8.77824 -1.95073 1.46304
          CHANNELS 3 Zrotation Xrotation Yrotation
          JOINT lForeArm
          {
            OFFSET 28.1742 -1.7115 0.48768
            CHANNELS 3 Zrotation Xrotation Yrotation
            JOINT lHand
            {
              OFFSET 22.5879 0.773209 7.07136
              CHANNELS 3 Zrotation Xrotation Yrotation
              JOINT lThumb1
              {
                OFFSET 1.2192 -0.487915 3.41376
                CHANNELS 3 Zrotation Xrotation Yrotation
                JOINT lThumb2
                {
                  OFFSET 3.37035 -0.52449 3.41376
                  CHANNELS 3 Zrotation Xrotation Yrotation
                  End Site
                  {
                    OFFSET 1.78271 -1.18214 1.43049
                  }
                }
              }
              JOINT lIndex1
              {
                OFFSET 7.75947 0.938293 5.60832
                CHANNELS 3 Zrotation Xrotation Yrotation
                JOINT lIndex2
                {
                  OFFSET 2.54057 -0.884171 1.56538
                  CHANNELS 3 Zrotation Xrotation Yrotation
                  End Site
                  {
                    OFFSET 1.62519 -0.234802 1.16502
                  }
                }
              }
              JOINT lMid1
              {
                OFFSET 8.24714 1.18213 3.41376
                CHANNELS 3 Zrotation Xrotation Yrotation
                JOINT lMid2
                {
                  OFFSET 3.10165 -0.590103 1.0647
                  CHANNELS 3 Zrotation Xrotation Yrotation
                  End Site
                  {
                    OFFSET 2.48547 -0.328903 0.83742
                  }
                }
              }
              JOINT lRing1
              {
                OFFSET 8.82822 0.546677 1.51678
                CHANNELS 3 Zrotation Xrotation Yrotation
                JOINT lRing2
                {
                  OFFSET 2.60934 -0.819778 -0.0198488
                  CHANNELS 3 Zrotation Xrotation Yrotation
                  End Site
                  {
                    OFFSET 2.33842 -0.294052 0.168128
                  }
                }
              }
              JOINT lPinky1
              {
                OFFSET 8.27202 -0.0477905 -0.4584
                CHANNELS 3 Zrotation Xrotation Yrotation
                JOINT lPinky2
                {
                  OFFSET 1.82734 -0.647385 -0.700984
                  CHANNELS 3 Zrotation Xrotation Yrotation
                  End Site
                  {
                    OFFSET 1.69225 -0.51767 -0.607171
                  }
                }
              }
            }
          }
        }
      }
    }
  }
  JOINT rButtock
  {
    OFFSET -8.77824 4.35084 1.2192
    CHANNELS 3 Zrotation Xrotation Yrotation
    JOINT rThigh
    {
      OFFSET 0 -1.70687 -2.19456
      CHANNELS 3 Zrotation Xrotation Yrotation
      JOINT rShin
      {
        OFFSET 0 -36.8199 0.73152
        CHANNELS 3 Zrotation Xrotation Yrotation
        JOINT rFoot
        {
          OFFSET 0.73152 -45.1104 -5.12064
          CHANNELS 3 Zrotation Xrotation Yrotation
          End Site
          {
            OFFSET -1.1221 -3.69964 12.103
          }
        }
      }
    }
  }
  JOINT lButtock
  {
    OFFSET 8.77824 4.35084 1.2192
    CHANNELS 3 Zrotation Xrotation Yrotation
    JOINT lThigh
    {
      OFFSET 0 -1.70687 -2.19456
      CHANNELS 3 Zrotation Xrotation Yrotation
      JOINT lShin
      {
        OFFSET 0 -36.8199 0.73152
        CHANNELS 3 Zrotation Xrotation Yrotation
        JOINT lFoot
        {
          OFFSET -0.73152 -45.1104 -5.12064
          CHANNELS 3 Zrotation Xrotation Yrotation
          End Site
          {
            OFFSET 1.1221 -3.69964 12.103
          }
        }
      }
    }
  }
}
MOTION
Frames:	7
Frame Time:	0.00833333
-7.11982 84.6326 36.2718 -4.1033 -0.9556 -1.5559 2.64091 4.0071 1.03959 -0.408216 -1.88255 0.156965 -1.49214 5.24604 -1.49502 2.16842 13.8707 -2.92179 -0.0 0.0 0.0 -0.0 0.0 0.0 -1.73769e-13 -3.73603e-14 -4.76462e-15 68.5901 54.9719 4.89815 -28.2718 -38.9613 81.8939 -1.78378 35.0088 5.64978 8.42691e-10 3.42966e-09 -2.77124e-10 1.44576e-09 5.86653e-09 -4.99666e-10 8.42698e-10 3.42967e-09 -2.77123e-10 7.73091 5.47488 0.417314 8.42692e-10 3.42966e-09 -2.77123e-10 2.90554 0.965183 0.102902 8.42699e-10 3.42966e-09 -2.7712e-10 10.2786 0.731801 0.0259123 8.42688e-10 3.42969e-09 -2.7711e-10 2.22167 -0.733487 -0.20892 -1.73785e-13 -3.73611e-14 -5.03756e-15 -62.6966 53.7027 -25.1985 28.3413 -33.3703 -72.6747 0.306191 15.5522 -2.24162 3.57171e-10 -2.38392e-09 -3.21271e-10 6.12605e-10 -4.10216e-09 -5.57935e-10 3.57155e-10 -2.38394e-09 -3.21269e-10 -7.73091 5.47488 -0.417314 3.57171e-10 -2.38396e-09 -3.21274e-10 -2.90554 0.965183 -0.102902 3.57165e-10 -2.38397e-09 -3.21272e-10 -10.2786 0.731801 -0.0259123 3.57181e-10 -2.38392e-09 -3.21278e-10 -2.22167 -0.733487 0.20892 -2.03217e-16 0.0 -3.88251e-19 -22.1596 -2.02095 0.000377521 0.0121606 -2.08161 0.112875 -0.327334 4.05939 0.114159 2.03217e-16 0.0 3.88251e-19 7.41051 3.473 -6.09329 -0.0511782 5.49459 -0.273045 0.746073 -10.3778 19.0967
-7.11543 84.6337 36.2456 -4.0811 -1.1209 -1.5541 2.83314 4.01112 1.03222 -0.497523 -1.86786 0.154814 -1.52549 5.14149 -1.47722 2.22893 14.6542 -2.90655 -0.0 0.0 0.0 -0.0 0.0 0.0 -1.69568e-13 4.59959e-16 1.25172e-14 66.9509 53.8407 7.29331 -28.4053 -37.8156 79.832 -1.73997 34.647 5.57366 5.56079e-10 2.27664e-09 -2.11018e-10 9.52872e-10 3.88455e-09 -3.77935e-10 5.56088e-10 2.27665e-09 -2.11017e-10 7.73091 5.47488 0.417314 5.56079e-10 2.27664e-09 -2.11017e-10 2.90554 0.965183 0.102902 5.56085e-10 2.27664e-09 -2.11015e-10 10.2786 0.731801 0.0259123 5.56076e-10 2.27665e-09 -2.11005e-10 2.22167 -0.733487 -0.20892 -1.69595e-13 4.59204e-16 1.22594e-14 -62.6485 53.6263 -25.1431 28.3292 -33.2186 -72.4259 0.30795 15.5949 -2.24809 6.04189e-10 -3.53215e-09 -4.87089e-10 1.03695e-09 -6.07937e-09 -8.47329e-10 6.04173e-10 -3.53216e-09 -4.87083e-10 -7.73091 5.47488 -0.417314 6.04189e-10 -3.53218e-09 -4.87091e-10 -2.90554 0.965183 -0.102902 6.04183e-10 -3.53219e-09 -4.87088e-10 -10.2786 0.731801 -0.0259123 6.04197e-10 -3.53215e-09 -4.87093e-10 -2.22167 -0.733487 0.20892 -2.03217e-16 0.0 -3.88251e-19 -22.1602 -2.02177 0.000370922 0.0123657 -2.08164 0.114688 -0.327456 4.0598 0.114185 2.03217e-16 0.0 3.88251e-19 7.51833 3.54574 -6.07854 -0.0548922 5.51861 -0.275812 0.766995 -10.4523 19.2456
-7.12016 84.6389 36.2229 -4.1317 -1.2945 -1.58 3.01023 4.0223 1.02971 -0.573833 -1.84969 0.154248 -1.57426 5.04753 -1.46476 2.29198 15.2858 -2.89672 -0.0 0.0 0.0 -0.0 0.0 0.0 -1.60115e-13 3.74788e-14 2.98519e-14 65.3131 52.9027 9.64051 -28.4528 -36.5953 77.8491 -1.68304 34.1646 5.47337 2.60575e-10 1.10048e-09 -1.3393e-10 4.44968e-10 1.86491e-09 -2.36995e-10 2.60585e-10 1.1005e-09 -1.33929e-10 7.73091 5.47488 0.417314 2.60574e-10 1.10048e-09 -1.33929e-10 2.90554 0.965183 0.102902 2.60579e-10 1.10048e-09 -1.33927e-10 10.2786 0.731801 0.0259123 2.60571e-10 1.10049e-09 -1.33916e-10 2.22167 -0.733487 -0.20892 -1.60157e-13 3.74782e-14 2.96014e-14 -62.5572 53.5634 -25.1606 28.3144 -33.0488 -72.1504 0.309848 15.6417 -2.25519 8.24707e-10 -4.54808e-09 -6.32956e-10 1.41576e-09 -7.8288e-09 -1.10192e-09 8.24691e-10 -4.54807e-09 -6.32945e-10 -7.73091 5.47488 -0.417314 8.24706e-10 -4.5481e-09 -6.32957e-10 -2.90554 0.965183 -0.102902 8.24701e-10 -4.5481e-09 -6.32952e-10 -10.2786 0.731801 -0.0259123 8.24712e-10 -4.54808e-09 -6.32956e-10 -2.22167 -0.733487 0.20892 -2.03217e-16 0.0 -3.88251e-19 -22.1606 -2.02256 0.000362579 0.0125577 -2.08166 0.116384 -0.327565 4.06021 0.114209 2.03217e-16 0.0 3.88251e-19 7.6147 3.61868 -6.06496 -0.0586923 5.53842 -0.278646 0.789125 -10.5236 19.3922
-7.19133 84.6549 36.2173 -4.4096 -1.5117 -1.6799 3.10471 4.02113 1.04591 -0.615734 -1.82103 0.158952 -1.61709 4.947 -1.46205 2.35471 15.7757 -2.90334 -0.0 0.0 0.0 -0.0 0.0 0.0 -1.45589e-13 5.66536e-14 4.00551e-14 63.7475 52.2314 11.7437 -28.433 -35.5107 76.1926 -1.64148 33.8014 5.39888 1.05086e-10 5.13545e-10 -6.5001e-11 1.78499e-10 8.6159e-10 -1.13853e-10 1.05097e-10 5.13568e-10 -6.5001e-11 7.73091 5.47488 0.417314 1.05084e-10 5.13547e-10 -6.5001e-11 2.90554 0.965183 0.102902 1.0509e-10 5.13548e-10 -6.49994e-11 10.2786 0.731801 0.0259123 1.05082e-10 5.13548e-10 -6.49883e-11 2.22167 -0.733487 -0.20892 -1.4564e-13 5.66532e-14 3.98066e-14 -62.3889 53.5388 -25.3026 28.2986 -32.8762 -71.8693 0.31331 15.7274 -2.26817 9.04205e-10 -4.91708e-09 -6.88771e-10 1.55218e-09 -8.46409e-09 -1.19925e-09 9.0419e-10 -4.91706e-09 -6.88759e-10 -7.73091 5.47488 -0.417314 9.04204e-10 -4.91709e-09 -6.88771e-10 -2.90554 0.965183 -0.102902 9.04198e-10 -4.91709e-09 -6.88766e-10 -10.2786 0.731801 -0.0259123 9.04209e-10 -4.91708e-09 -6.88768e-10 -2.22167 -0.733487 0.20892 -2.03217e-16 0.0 -3.88251e-19 -22.1605 -2.02308 0.000351094 0.012675 -2.08168 0.117421 -0.327637 4.0605 0.114225 2.03217e-16 0.0 3.88251e-19 7.64847 3.67391 -6.04577 -0.0611388 5.54095 -0.280096 0.809682 -10.5684 19.5188
-7.2236 84.6628 36.1991 -4.5242 -1.6884 -1.7278 3.07124 3.9953 1.08898 -0.600442 -1.77167 0.17123 -1.66169 4.82365 -1.47509 2.43256 16.1026 -2.93771 -0.0 0.0 0.0 -0.0 0.0 0.0 -1.23729e-13 4.91642e-14 3.89024e-14 62.0786 51.9305 13.6987 -28.4031 -34.6241 74.7681 -1.61853 33.5976 5.35738 1.56558e-10 8.0803e-10 -5.39999e-13 2.69098e-10 1.37947e-09 -3.88423e-12 1.56567e-10 8.0805e-10 -5.41294e-13 7.73091 5.47488 0.417314 1.56556e-10 8.08032e-10 -5.41294e-13 2.90554 0.965183 0.102902 1.56562e-10 8.08033e-10 -5.39206e-13 10.2786 0.731801 0.0259123 1.56555e-10 8.08031e-10 -5.29137e-13 2.22167 -0.733487 -0.20892 -1.23778e-13 4.91641e-14 3.86415e-14 -62.0861 53.5716 -25.6418 28.2811 -32.6938 -71.5703 0.32064 15.9065 -2.29536 7.83976e-10 -4.38629e-09 -6.17568e-10 1.34528e-09 -7.5499e-09 -1.07469e-09 7.83964e-10 -4.38627e-09 -6.17557e-10 -7.73091 5.47488 -0.417314 7.83976e-10 -4.38629e-09 -6.17566e-10 -2.90554 0.965183 -0.102902 7.8397e-10 -4.38629e-09 -6.17562e-10 -10.2786 0.731801 -0.0259123 7.8398e-10 -4.38629e-09 -6.17563e-10 -2.22167 -0.733487 0.20892 -2.03217e-16 0.0 -3.88251e-19 -22.1596 -2.02322 0.000334001 0.0126821 -2.08168 0.117484 -0.32766 4.06062 0.114231 2.03217e-16 0.0 3.88251e-19 7.58368 3.70418 -6.01409 -0.0615413 5.51623 -0.279515 0.828028 -10.5733 19.6175
-7.16231 84.6528 36.1497 -4.2777 -1.7755 -1.6638 2.95497 3.95758 1.15003 -0.545097 -1.70812 0.188676 -1.7151 4.69053 -1.49992 2.52204 16.2688 -2.99095 -0.0 0.0 0.0 -0.0 0.0 0.0 -9.52095e-14 2.55252e-14 3.09949e-14 60.2306 51.9345 15.641 -28.3713 -33.8412 73.4396 -1.60008 33.4333 5.32399 3.26494e-10 1.61438e-09 6.67304e-11 5.64243e-10 2.78183e-09 1.07816e-10 3.26501e-10 1.6144e-09 6.67272e-11 7.73091 5.47488 0.417314 3.26492e-10 1.61438e-09 6.67272e-11 2.90554 0.965183 0.102902 3.265e-10 1.61438e-09 6.67303e-11 10.2786 0.731801 0.0259123 3.26493e-10 1.61438e-09 6.67386e-11 2.22167 -0.733487 -0.20892 -9.52511e-14 2.55254e-14 3.07091e-14 -61.681 53.6429 -26.1322 28.2608 -32.4962 -71.2489 0.330666 16.1454 -2.33173 5.34488e-10 -3.26871e-09 -4.62824e-10 9.16203e-10 -5.62528e-09 -8.04215e-10 5.34479e-10 -3.2687e-09 -4.62815e-10 -7.73091 5.47488 -0.417314 5.34487e-10 -3.26871e-09 -4.62819e-10 -2.90554 0.965183 -0.102902 5.3448e-10 -3.26871e-09 -4.62817e-10 -10.2786 0.731801 -0.0259123 5.34492e-10 -3.26871e-09 -4.62818e-10 -2.22167 -0.733487 0.20892 -2.03217e-16 0.0 -3.88251e-19 -22.1581 -2.02311 0.000312745 0.0126182 -2.08167 0.116918 -0.327646 4.06065 0.114229 2.03217e-16 0.0 3.88251e-19 7.45507 3.71985 -5.97525 -0.0607686 5.47337 -0.277765 0.845324 -10.5531 19.6986
-7.12395 84.6462 36.1083 -4.1162 -1.8686 -1.6238 2.82418 3.92608 1.21738 -0.488161 -1.64849 0.207908 -1.75491 4.57439 -1.52596 2.59175 16.321 -3.0439 -0.0 0.0 0.0 -0.0 0.0 0.0 -6.46096e-14 -2.30385e-15 2.2387e-14 58.4313 52.0817 17.4292 -28.3302 -33.1798 72.3248 -1.58609 33.3083 5.29867 5.3064e-10 2.55231e-09 1.23046e-10 9.18152e-10 4.41021e-09 1.99667e-10 5.30643e-10 2.55231e-09 1.23041e-10 7.73091 5.47488 0.417314 5.30638e-10 2.55231e-09 1.23041e-10 2.90554 0.965183 0.102902 5.30648e-10 2.55231e-09 1.23045e-10 10.2786 0.731801 0.0259123 5.3064e-10 2.55231e-09 1.23051e-10 2.22167 -0.733487 -0.20892 -6.46458e-14 -2.30338e-15 2.20826e-14 -61.2757 53.7198 -26.647 28.2391 -32.3023 -70.9372 0.339334 16.3465 -2.36244 2.34979e-10 -1.89854e-09 -2.75108e-10 4.01176e-10 -3.26544e-09 -4.76262e-10 2.34974e-10 -1.89853e-09 -2.75102e-10 -7.73091 5.47488 -0.417314 2.34979e-10 -1.89854e-09 -2.751e-10 -2.90554 0.965183 -0.102902 2.34971e-10 -1.89854e-09 -2.751e-10 -10.2786 0.731801 -0.0259123 2.34983e-10 -1.89854e-09 -2.75101e-10 -2.22167 -0.733487 0.20892 -2.03217e-16 0.0 -3.88251e-19 -22.1566 -2.02292 0.000291789 0.012534 -2.08166 0.116175 -0.327619 4.06064 0.114225 2.03217e-16 0.0 3.88251e-19 7.31754 3.72949 -5.94067 -0.0597228 5.42801 -0.275654 0.861404 -10.5274 19.7722
